<svg version="1.1" id="Layer_1" xmlns="http://www.w3.org/2000/svg" xmlns:xlink="http://www.w3.org/1999/xlink" x="0px" y="0px" width="100%" viewBox="0 0 3456 3456" enable-background="new 0 0 3456 3456" xml:space="preserve">
<path fill="#000000" opacity="1.000000" stroke="none" d="
M1684.000000,3458.000000 
	C1122.666870,3458.000000 562.333679,3458.000000 2.000376,3458.000000 
	C2.000251,2306.000488 2.000251,1154.000977 2.000125,2.001149 
	C1153.999146,2.000766 2305.998291,2.000766 3457.998047,2.000383 
	C3457.998779,1153.998779 3457.998779,2305.997559 3457.999512,3457.998047 
	C2867.000000,3458.000000 2276.000000,3458.000000 1684.000000,3458.000000 
M2371.428223,1466.092407 
	C2376.369141,1479.867920 2381.982666,1493.445923 2386.101562,1507.462891 
	C2393.223633,1531.699341 2399.428711,1556.205688 2405.996338,1580.604736 
	C2408.086670,1588.370483 2413.783203,1592.789917 2420.179443,1591.517456 
	C2427.305420,1590.099731 2431.029053,1583.741455 2429.591309,1575.389404 
	C2429.422363,1574.408813 2429.039551,1573.467285 2428.823486,1572.492676 
	C2395.742676,1423.501343 2324.015137,1296.264160 2212.191162,1192.434570 
	C2097.546631,1085.986206 1961.884155,1024.017944 1806.334839,1006.443848 
	C1743.439209,999.337769 1680.657593,1001.445312 1618.100708,1011.527344 
	C1541.856567,1023.815308 1469.181152,1047.173584 1401.546021,1084.265015 
	C1205.838379,1191.591797 1083.829468,1355.136597 1032.773682,1572.061523 
	C1032.167480,1574.636963 1031.720703,1577.326538 1031.744141,1579.957886 
	C1031.794556,1585.657715 1035.609985,1590.140625 1041.048584,1591.403198 
	C1046.284058,1592.618652 1051.735474,1590.011108 1054.185669,1584.689941 
	C1055.277466,1582.318726 1055.682861,1579.612305 1056.262939,1577.027344 
	C1086.008423,1444.473999 1146.833008,1328.249878 1243.131714,1232.303223 
	C1395.411621,1080.579956 1579.469727,1012.600708 1794.241333,1029.673462 
	C1846.232300,1033.806152 1897.066528,1044.329590 1946.240356,1061.611816 
	C2147.909424,1132.489014 2288.319824,1268.126099 2371.428223,1466.092407 
M1749.009766,2433.615234 
	C1695.840210,2434.790771 1643.111938,2430.454590 1591.125488,2419.270996 
	C1448.805786,2388.656250 1327.974487,2319.730957 1228.859985,2213.287598 
	C1141.082764,2119.019775 1084.150391,2008.338013 1056.192993,1882.673340 
	C1055.689453,1880.409546 1055.297974,1878.062866 1054.382812,1875.959961 
	C1052.044922,1870.587646 1046.713135,1867.682007 1041.538574,1868.649780 
	C1035.667358,1869.747803 1031.668579,1874.487183 1031.749390,1880.714355 
	C1031.783691,1883.345947 1032.344971,1886.002686 1032.924438,1888.590332 
	C1065.085449,2032.202759 1133.190552,2155.989990 1239.235596,2258.118164 
	C1355.112061,2369.714844 1493.446045,2434.906250 1653.332886,2453.529053 
	C1712.850586,2460.461670 1772.360474,2459.037354 1831.739746,2450.457275 
	C1911.902466,2438.874512 1988.021606,2414.738281 2059.278076,2376.352783 
	C2225.097656,2287.026611 2339.208008,2152.844727 2403.749268,1976.205200 
	C2414.496094,1946.792969 2422.590332,1916.578857 2429.318115,1886.006470 
	C2431.326416,1876.880371 2427.869629,1870.417603 2420.426514,1868.751221 
	C2413.597168,1867.222534 2408.011230,1871.639893 2405.894043,1880.343628 
	C2404.557373,1885.839600 2403.400146,1891.379517 2402.051514,1896.872559 
	C2364.451416,2050.010010 2285.715088,2177.780273 2163.902832,2277.956055 
	C2044.151733,2376.437012 1905.975952,2427.678223 1749.009766,2433.615234 
M2624.212402,1783.786865 
	C2623.860352,1772.611084 2619.461182,1763.153198 2611.910400,1755.078125 
	C2601.938965,1744.414185 2589.413574,1740.337646 2575.055420,1740.380493 
	C2532.738037,1740.506958 2490.419678,1740.429443 2448.101807,1740.417603 
	C2445.105469,1740.416748 2442.063721,1740.612915 2439.121094,1740.183350 
	C2430.737793,1738.959473 2427.768555,1733.810303 2427.779053,1721.105713 
	C2427.789307,1708.755127 2431.003174,1703.278687 2439.278564,1702.079346 
	C2442.221680,1701.652954 2445.264160,1701.869019 2448.261230,1701.868530 
	C2500.242432,1701.859009 2552.223389,1701.868896 2604.204590,1701.843994 
	C2607.716309,1701.842285 2611.227783,1701.598022 2614.716309,1701.467407 
	C2614.716309,1691.861938 2614.716309,1683.383423 2614.716309,1674.640381 
	C2612.065918,1674.472046 2610.109375,1674.239868 2608.152832,1674.239136 
	C2552.839600,1674.220337 2497.524658,1674.484863 2442.213867,1674.112305 
	C2415.951660,1673.935425 2387.761963,1697.379395 2397.413574,1734.920044 
	C2402.522949,1754.793213 2420.153076,1767.899292 2441.037109,1767.976562 
	C2484.354004,1768.136963 2527.672119,1768.025146 2570.989746,1768.033813 
	C2573.987549,1768.034424 2577.017578,1767.839844 2579.976318,1768.199585 
	C2586.644775,1769.010254 2591.401123,1774.014526 2592.042480,1780.758911 
	C2592.293701,1783.401978 2592.142334,1786.086060 2592.132812,1788.751221 
	C2592.083252,1802.759277 2588.269775,1806.702026 2574.524170,1806.949341 
	C2572.192383,1806.991333 2569.859131,1806.959839 2567.526611,1806.959839 
	C2516.878418,1806.960083 2466.229980,1806.951416 2415.581787,1806.978271 
	C2412.057373,1806.980103 2408.532959,1807.244507 2404.910645,1807.390625 
	C2404.910645,1816.814331 2404.910645,1825.082275 2404.910645,1833.714233 
	C2407.148193,1833.950073 2409.085449,1834.331421 2411.022461,1834.332397 
	C2467.002197,1834.361694 2522.981934,1834.390503 2578.961426,1834.275391 
	C2583.226074,1834.266602 2587.646729,1833.729126 2591.725586,1832.525269 
	C2612.313965,1826.449463 2623.933594,1809.428711 2624.212402,1783.786865 
M1509.719482,1740.998291 
	C1509.719482,1771.871826 1509.719482,1802.745361 1509.719482,1833.897949 
	C1520.798584,1833.897949 1530.986572,1833.897949 1541.957520,1833.897949 
	C1541.957520,1816.589111 1541.957520,1799.722168 1541.957520,1782.454590 
	C1587.593506,1782.454590 1632.445312,1782.454590 1677.890503,1782.454590 
	C1686.113159,1799.530518 1694.446411,1816.836426 1702.639648,1833.851318 
	C1714.567261,1833.851318 1725.779907,1833.851318 1738.080811,1833.851318 
	C1729.119019,1814.875854 1720.547852,1796.727783 1711.812866,1778.233032 
	C1714.430908,1776.549072 1716.678223,1775.226807 1718.795044,1773.720947 
	C1727.786133,1767.324829 1735.276367,1759.093994 1736.475586,1748.139526 
	C1737.906982,1735.065552 1738.843994,1721.367432 1736.501953,1708.579468 
	C1732.660156,1687.602051 1713.488892,1674.281494 1690.981567,1674.252319 
	C1633.039307,1674.177124 1575.096802,1674.220581 1517.154419,1674.247559 
	C1514.906982,1674.248535 1512.659790,1674.564697 1509.719604,1674.786133 
	C1509.719604,1696.447266 1509.719604,1717.722778 1509.719482,1740.998291 
M1866.389282,1831.713013 
	C1868.094238,1836.293701 1872.031738,1834.220459 1874.932373,1834.250854 
	C1893.253784,1834.443604 1911.582397,1834.107422 1929.900024,1834.428955 
	C1942.704712,1834.653687 1953.245239,1830.137695 1962.158081,1821.221436 
	C2009.027710,1774.334351 2055.912109,1727.462158 2102.744629,1680.537842 
	C2104.175781,1679.104004 2105.091309,1677.155640 2107.069092,1674.232788 
	C2096.898193,1674.232788 2088.222900,1675.048584 2079.767578,1674.033447 
	C2068.336182,1672.660767 2060.765625,1677.278076 2052.956299,1685.198486 
	C2015.066528,1723.626343 1976.621460,1761.507935 1938.241333,1799.449707 
	C1935.274170,1802.382935 1931.463257,1805.954468 1927.743530,1806.342285 
	C1918.303467,1807.326172 1908.692261,1806.669067 1898.074463,1806.669067 
	C1898.074463,1762.174683 1898.074463,1718.435181 1898.074463,1674.760254 
	C1887.094482,1674.760254 1877.220703,1674.760254 1866.322266,1674.760254 
	C1866.322266,1726.821533 1866.322266,1778.362183 1866.389282,1831.713013 
M1381.695923,1785.000000 
	C1381.559692,1748.706543 1381.424805,1712.413086 1381.261108,1676.119751 
	C1381.260010,1675.868896 1380.867554,1675.615967 1380.649780,1675.371216 
	C1380.429932,1675.124268 1380.199951,1674.886597 1379.578979,1674.220947 
	C1359.975342,1674.220947 1340.001099,1674.475098 1320.036987,1674.133545 
	C1306.203979,1673.897095 1294.787720,1678.587646 1285.078857,1688.314941 
	C1238.489868,1734.992310 1191.815674,1781.584595 1145.211548,1828.246948 
	C1143.768188,1829.692505 1142.761475,1831.574341 1140.752075,1834.360596 
	C1153.486694,1834.360596 1164.773926,1834.056030 1176.033325,1834.485718 
	C1181.899048,1834.709717 1186.003296,1832.691040 1189.993652,1828.592773 
	C1202.539429,1815.707520 1215.386841,1803.115601 1228.138916,1790.431763 
	C1255.295044,1763.420288 1282.470947,1736.428589 1309.621948,1709.412109 
	C1313.175293,1705.876343 1316.577637,1702.066162 1322.119995,1702.020508 
	C1331.074707,1701.946533 1340.030396,1702.000610 1349.927734,1702.000610 
	C1349.927734,1746.510010 1349.927734,1790.293091 1349.927734,1833.634399 
	C1361.021484,1833.634399 1371.145630,1833.634399 1381.695923,1833.634399 
	C1381.695923,1817.607178 1381.695923,1802.303589 1381.695923,1785.000000 
M980.232849,1729.000000 
	C980.232117,1749.322510 980.300476,1769.645508 980.205017,1789.967529 
	C980.146423,1802.438721 975.787048,1807.104126 963.503052,1807.141968 
	C919.859863,1807.276489 876.215820,1807.274658 832.572571,1807.143921 
	C820.134888,1807.106689 815.796448,1802.539795 815.708496,1790.142822 
	C815.604553,1775.484619 815.722473,1760.824951 815.646484,1746.166504 
	C815.633484,1743.649902 815.132629,1741.135986 814.867432,1738.714844 
	C804.122498,1738.714844 794.248230,1738.714844 783.649719,1738.714844 
	C783.649719,1755.806885 784.053833,1772.439575 783.554260,1789.045044 
	C782.820557,1813.429810 805.276428,1834.843750 829.459351,1834.520508 
	C875.093689,1833.910278 920.748291,1833.892944 966.382080,1834.524414 
	C990.849487,1834.862915 1012.940918,1813.082397 1012.443054,1788.081299 
	C1011.739929,1752.780640 1012.285156,1717.455444 1012.241516,1682.140747 
	C1012.238464,1679.638306 1011.781372,1677.136353 1011.548950,1674.772461 
	C1000.952698,1674.772461 991.082581,1674.772461 980.232849,1674.772461 
	C980.232849,1692.530884 980.232849,1709.765381 980.232849,1729.000000 
M2267.066406,1833.441406 
	C2267.274658,1831.472534 2267.663574,1829.503662 2267.664795,1827.534668 
	C2267.698242,1778.605225 2267.697754,1729.675903 2267.662598,1680.746460 
	C2267.661377,1678.851562 2267.257080,1676.956909 2267.017578,1674.858398 
	C2256.347900,1674.858398 2246.281250,1674.858398 2236.143555,1674.858398 
	C2236.143555,1728.268921 2236.143555,1781.044556 2236.143555,1834.177490 
	C2246.243652,1834.177490 2255.842529,1834.177490 2267.066406,1833.441406 
M1092.487549,1811.608887 
	C1092.343018,1808.693115 1092.198364,1805.777344 1092.061523,1803.016113 
	C1081.323608,1803.016113 1071.243530,1803.016113 1060.800537,1803.016113 
	C1060.800537,1813.580322 1060.800537,1823.432617 1060.800537,1833.782104 
	C1071.327148,1833.782104 1081.700439,1833.782104 1092.487427,1833.782104 
	C1092.487427,1826.613281 1092.487427,1820.022705 1092.487549,1811.608887 
M1818.287476,1820.746338 
	C1818.287476,1814.825562 1818.287476,1808.904785 1818.287476,1802.929199 
	C1807.301758,1802.929199 1797.191650,1802.929199 1786.778076,1802.929199 
	C1786.778076,1813.617065 1786.778076,1823.673462 1786.778076,1833.838867 
	C1797.475342,1833.838867 1807.607910,1833.838867 1818.287476,1833.838867 
	C1818.287476,1829.726929 1818.287476,1826.133789 1818.287476,1820.746338 
M2155.503906,1822.515381 
	C2155.503906,1826.356689 2155.503906,1830.197876 2155.503906,1833.748047 
	C2166.865234,1833.748047 2176.980713,1833.748047 2187.539551,1833.748047 
	C2187.431152,1823.026245 2187.974609,1812.913574 2187.210449,1802.646240 
	C2176.154053,1802.646240 2166.302002,1802.646240 2155.503906,1802.646240 
	C2155.503906,1808.887451 2155.503906,1814.795898 2155.503906,1822.515381 
M1429.732788,1831.209839 
	C1430.359863,1832.207275 1430.970947,1834.061768 1431.616455,1834.073730 
	C1441.484741,1834.258179 1451.357544,1834.202148 1461.054077,1834.202148 
	C1461.054077,1823.226318 1461.054077,1813.120605 1461.054077,1803.007568 
	C1450.285034,1803.007568 1440.258911,1803.007568 1429.716675,1803.007568 
	C1429.716675,1812.302979 1429.716675,1820.902100 1429.732788,1831.209839 
M2332.874512,1834.363159 
	C2337.698730,1834.363159 2342.522949,1834.363159 2347.880127,1834.363159 
	C2347.508057,1822.915161 2348.247803,1812.802124 2347.392578,1802.690796 
	C2336.210449,1802.690796 2326.348389,1802.690796 2316.059814,1802.690796 
	C2316.059814,1813.223633 2316.059814,1823.369141 2316.059814,1834.363159 
	C2321.266602,1834.363159 2326.159912,1834.363159 2332.874512,1834.363159 
z" data-index="0" style="opacity: 1;"></path>
<path fill="#F9F9F9" opacity="1.000000" stroke="none" d="
M2371.084473,1465.400391 
	C2288.319824,1268.126099 2147.909424,1132.489014 1946.240356,1061.611816 
	C1897.066528,1044.329590 1846.232300,1033.806152 1794.241333,1029.673462 
	C1579.469727,1012.600708 1395.411621,1080.579956 1243.131714,1232.303223 
	C1146.833008,1328.249878 1086.008423,1444.473999 1056.262939,1577.027344 
	C1055.682861,1579.612305 1055.277466,1582.318726 1054.185669,1584.689941 
	C1051.735474,1590.011108 1046.284058,1592.618652 1041.048584,1591.403198 
	C1035.609985,1590.140625 1031.794556,1585.657715 1031.744141,1579.957886 
	C1031.720703,1577.326538 1032.167480,1574.636963 1032.773682,1572.061523 
	C1083.829468,1355.136597 1205.838379,1191.591797 1401.546021,1084.265015 
	C1469.181152,1047.173584 1541.856567,1023.815308 1618.100708,1011.527344 
	C1680.657593,1001.445312 1743.439209,999.337769 1806.334839,1006.443848 
	C1961.884155,1024.017944 2097.546631,1085.986206 2212.191162,1192.434570 
	C2324.015137,1296.264160 2395.742676,1423.501343 2428.823486,1572.492676 
	C2429.039551,1573.467285 2429.422363,1574.408813 2429.591309,1575.389404 
	C2431.029053,1583.741455 2427.305420,1590.099731 2420.179443,1591.517456 
	C2413.783203,1592.789917 2408.086670,1588.370483 2405.996338,1580.604736 
	C2399.428711,1556.205688 2393.223633,1531.699341 2386.101562,1507.462891 
	C2381.982666,1493.445923 2376.369141,1479.867920 2371.084473,1465.400391 
z" data-index="1"></path>
<path fill="#F9F9F9" opacity="1.000000" stroke="none" d="
M1750.008301,2433.565674 
	C1905.975952,2427.678223 2044.151733,2376.437012 2163.902832,2277.956055 
	C2285.715088,2177.780273 2364.451416,2050.010010 2402.051514,1896.872559 
	C2403.400146,1891.379517 2404.557373,1885.839600 2405.894043,1880.343628 
	C2408.011230,1871.639893 2413.597168,1867.222534 2420.426514,1868.751221 
	C2427.869629,1870.417603 2431.326416,1876.880371 2429.318115,1886.006470 
	C2422.590332,1916.578857 2414.496094,1946.792969 2403.749268,1976.205200 
	C2339.208008,2152.844727 2225.097656,2287.026611 2059.278076,2376.352783 
	C1988.021606,2414.738281 1911.902466,2438.874512 1831.739746,2450.457275 
	C1772.360474,2459.037354 1712.850586,2460.461670 1653.332886,2453.529053 
	C1493.446045,2434.906250 1355.112061,2369.714844 1239.235596,2258.118164 
	C1133.190552,2155.989990 1065.085449,2032.202759 1032.924438,1888.590332 
	C1032.344971,1886.002686 1031.783691,1883.345947 1031.749390,1880.714355 
	C1031.668579,1874.487183 1035.667358,1869.747803 1041.538574,1868.649780 
	C1046.713135,1867.682007 1052.044922,1870.587646 1054.382812,1875.959961 
	C1055.297974,1878.062866 1055.689453,1880.409546 1056.192993,1882.673340 
	C1084.150391,2008.338013 1141.082764,2119.019775 1228.859985,2213.287598 
	C1327.974487,2319.730957 1448.805786,2388.656250 1591.125488,2419.270996 
	C1643.111938,2430.454590 1695.840210,2434.790771 1750.008301,2433.565674 
z" data-index="2"></path>
<path fill="#F9F9F9" opacity="1.000000" stroke="none" d="
M2624.239990,1784.598877 
	C2623.933594,1809.428711 2612.313965,1826.449463 2591.725586,1832.525269 
	C2587.646729,1833.729126 2583.226074,1834.266602 2578.961426,1834.275391 
	C2522.981934,1834.390503 2467.002197,1834.361694 2411.022461,1834.332397 
	C2409.085449,1834.331421 2407.148193,1833.950073 2404.910645,1833.714233 
	C2404.910645,1825.082275 2404.910645,1816.814331 2404.910645,1807.390625 
	C2408.532959,1807.244507 2412.057373,1806.980103 2415.581787,1806.978271 
	C2466.229980,1806.951416 2516.878418,1806.960083 2567.526611,1806.959839 
	C2569.859131,1806.959839 2572.192383,1806.991333 2574.524170,1806.949341 
	C2588.269775,1806.702026 2592.083252,1802.759277 2592.132812,1788.751221 
	C2592.142334,1786.086060 2592.293701,1783.401978 2592.042480,1780.758911 
	C2591.401123,1774.014526 2586.644775,1769.010254 2579.976318,1768.199585 
	C2577.017578,1767.839844 2573.987549,1768.034424 2570.989746,1768.033813 
	C2527.672119,1768.025146 2484.354004,1768.136963 2441.037109,1767.976562 
	C2420.153076,1767.899292 2402.522949,1754.793213 2397.413574,1734.920044 
	C2387.761963,1697.379395 2415.951660,1673.935425 2442.213867,1674.112305 
	C2497.524658,1674.484863 2552.839600,1674.220337 2608.152832,1674.239136 
	C2610.109375,1674.239868 2612.065918,1674.472046 2614.716309,1674.640381 
	C2614.716309,1683.383423 2614.716309,1691.861938 2614.716309,1701.467407 
	C2611.227783,1701.598022 2607.716309,1701.842285 2604.204590,1701.843994 
	C2552.223389,1701.868896 2500.242432,1701.859009 2448.261230,1701.868530 
	C2445.264160,1701.869019 2442.221680,1701.652954 2439.278564,1702.079346 
	C2431.003174,1703.278687 2427.789307,1708.755127 2427.779053,1721.105713 
	C2427.768555,1733.810303 2430.737793,1738.959473 2439.121094,1740.183350 
	C2442.063721,1740.612915 2445.105469,1740.416748 2448.101807,1740.417603 
	C2490.419678,1740.429443 2532.738037,1740.506958 2575.055420,1740.380493 
	C2589.413574,1740.337646 2601.938965,1744.414185 2611.910400,1755.078125 
	C2619.461182,1763.153198 2623.860352,1772.611084 2624.239990,1784.598877 
z" data-index="3"></path>
<path fill="#FAFAFA" opacity="1.000000" stroke="none" d="
M1509.719482,1739.998291 
	C1509.719604,1717.722778 1509.719604,1696.447266 1509.719604,1674.786133 
	C1512.659790,1674.564697 1514.906982,1674.248535 1517.154419,1674.247559 
	C1575.096802,1674.220581 1633.039307,1674.177124 1690.981567,1674.252319 
	C1713.488892,1674.281494 1732.660156,1687.602051 1736.501953,1708.579468 
	C1738.843994,1721.367432 1737.906982,1735.065552 1736.475586,1748.139526 
	C1735.276367,1759.093994 1727.786133,1767.324829 1718.795044,1773.720947 
	C1716.678223,1775.226807 1714.430908,1776.549072 1711.812866,1778.233032 
	C1720.547852,1796.727783 1729.119019,1814.875854 1738.080811,1833.851318 
	C1725.779907,1833.851318 1714.567261,1833.851318 1702.639648,1833.851318 
	C1694.446411,1816.836426 1686.113159,1799.530518 1677.890503,1782.454590 
	C1632.445312,1782.454590 1587.593506,1782.454590 1541.957520,1782.454590 
	C1541.957520,1799.722168 1541.957520,1816.589111 1541.957520,1833.897949 
	C1530.986572,1833.897949 1520.798584,1833.897949 1509.719482,1833.897949 
	C1509.719482,1802.745361 1509.719482,1771.871826 1509.719482,1739.998291 
M1627.000000,1701.934814 
	C1598.809692,1701.934814 1570.619385,1701.934814 1542.262085,1701.934814 
	C1542.262085,1719.854736 1542.262085,1736.664917 1542.262085,1754.233276 
	C1545.981812,1754.233276 1549.244751,1754.233276 1552.507568,1754.233276 
	C1581.483276,1754.233276 1610.459106,1754.233154 1639.434814,1754.233032 
	C1656.420532,1754.233032 1673.426147,1753.741455 1690.384399,1754.423584 
	C1700.010376,1754.810913 1707.213623,1747.360352 1706.343384,1738.379761 
	C1705.735840,1732.110718 1706.277588,1725.734619 1706.219971,1719.407227 
	C1706.101318,1706.362549 1701.850952,1702.004395 1688.949707,1701.956055 
	C1668.966797,1701.881104 1648.983276,1701.935425 1627.000000,1701.934814 
z" data-index="4"></path>
<path fill="#FBFBFB" opacity="1.000000" stroke="none" d="
M1866.355713,1830.807983 
	C1866.322266,1778.362183 1866.322266,1726.821533 1866.322266,1674.760254 
	C1877.220703,1674.760254 1887.094482,1674.760254 1898.074463,1674.760254 
	C1898.074463,1718.435181 1898.074463,1762.174683 1898.074463,1806.669067 
	C1908.692261,1806.669067 1918.303467,1807.326172 1927.743530,1806.342285 
	C1931.463257,1805.954468 1935.274170,1802.382935 1938.241333,1799.449707 
	C1976.621460,1761.507935 2015.066528,1723.626343 2052.956299,1685.198486 
	C2060.765625,1677.278076 2068.336182,1672.660767 2079.767578,1674.033447 
	C2088.222900,1675.048584 2096.898193,1674.232788 2107.069092,1674.232788 
	C2105.091309,1677.155640 2104.175781,1679.104004 2102.744629,1680.537842 
	C2055.912109,1727.462158 2009.027710,1774.334351 1962.158081,1821.221436 
	C1953.245239,1830.137695 1942.704712,1834.653687 1929.900024,1834.428955 
	C1911.582397,1834.107422 1893.253784,1834.443604 1874.932373,1834.250854 
	C1872.031738,1834.220459 1868.094238,1836.293701 1866.355713,1830.807983 
z" data-index="5"></path>
<path fill="#F9F9F9" opacity="1.000000" stroke="none" d="
M1381.695923,1786.000000 
	C1381.695923,1802.303589 1381.695923,1817.607178 1381.695923,1833.634399 
	C1371.145630,1833.634399 1361.021484,1833.634399 1349.927734,1833.634399 
	C1349.927734,1790.293091 1349.927734,1746.510010 1349.927734,1702.000610 
	C1340.030396,1702.000610 1331.074707,1701.946533 1322.119995,1702.020508 
	C1316.577637,1702.066162 1313.175293,1705.876343 1309.621948,1709.412109 
	C1282.470947,1736.428589 1255.295044,1763.420288 1228.138916,1790.431763 
	C1215.386841,1803.115601 1202.539429,1815.707520 1189.993652,1828.592773 
	C1186.003296,1832.691040 1181.899048,1834.709717 1176.033325,1834.485718 
	C1164.773926,1834.056030 1153.486694,1834.360596 1140.752075,1834.360596 
	C1142.761475,1831.574341 1143.768188,1829.692505 1145.211548,1828.246948 
	C1191.815674,1781.584595 1238.489868,1734.992310 1285.078857,1688.314941 
	C1294.787720,1678.587646 1306.203979,1673.897095 1320.036987,1674.133545 
	C1340.001099,1674.475098 1359.975342,1674.220947 1379.578979,1674.220947 
	C1380.199951,1674.886597 1380.429932,1675.124268 1380.649780,1675.371216 
	C1380.867554,1675.615967 1381.260010,1675.868896 1381.261108,1676.119751 
	C1381.424805,1712.413086 1381.559692,1748.706543 1381.695923,1786.000000 
z" data-index="6"></path>
<path fill="#FBFBFB" opacity="1.000000" stroke="none" d="
M980.232849,1728.000000 
	C980.232849,1709.765381 980.232849,1692.530884 980.232849,1674.772461 
	C991.082581,1674.772461 1000.952698,1674.772461 1011.548950,1674.772461 
	C1011.781372,1677.136353 1012.238464,1679.638306 1012.241516,1682.140747 
	C1012.285156,1717.455444 1011.739929,1752.780640 1012.443054,1788.081299 
	C1012.940918,1813.082397 990.849487,1834.862915 966.382080,1834.524414 
	C920.748291,1833.892944 875.093689,1833.910278 829.459351,1834.520508 
	C805.276428,1834.843750 782.820557,1813.429810 783.554260,1789.045044 
	C784.053833,1772.439575 783.649719,1755.806885 783.649719,1738.714844 
	C794.248230,1738.714844 804.122498,1738.714844 814.867432,1738.714844 
	C815.132629,1741.135986 815.633484,1743.649902 815.646484,1746.166504 
	C815.722473,1760.824951 815.604553,1775.484619 815.708496,1790.142822 
	C815.796448,1802.539795 820.134888,1807.106689 832.572571,1807.143921 
	C876.215820,1807.274658 919.859863,1807.276489 963.503052,1807.141968 
	C975.787048,1807.104126 980.146423,1802.438721 980.205017,1789.967529 
	C980.300476,1769.645508 980.232117,1749.322510 980.232849,1728.000000 
z" data-index="7"></path>
<path fill="#FAFAFA" opacity="1.000000" stroke="none" d="
M2266.253906,1833.809448 
	C2255.842529,1834.177490 2246.243652,1834.177490 2236.143555,1834.177490 
	C2236.143555,1781.044556 2236.143555,1728.268921 2236.143555,1674.858398 
	C2246.281250,1674.858398 2256.347900,1674.858398 2267.017578,1674.858398 
	C2267.257080,1676.956909 2267.661377,1678.851562 2267.662598,1680.746460 
	C2267.697754,1729.675903 2267.698242,1778.605225 2267.664795,1827.534668 
	C2267.663574,1829.503662 2267.274658,1831.472534 2266.253906,1833.809448 
z" data-index="8"></path>
<path fill="#F9F9F9" opacity="1.000000" stroke="none" d="
M1092.487549,1812.520508 
	C1092.487427,1820.022705 1092.487427,1826.613281 1092.487427,1833.782104 
	C1081.700439,1833.782104 1071.327148,1833.782104 1060.800537,1833.782104 
	C1060.800537,1823.432617 1060.800537,1813.580322 1060.800537,1803.016113 
	C1071.243530,1803.016113 1081.323608,1803.016113 1092.061523,1803.016113 
	C1092.198364,1805.777344 1092.343018,1808.693115 1092.487549,1812.520508 
z" data-index="9"></path>
<path fill="#F9F9F9" opacity="1.000000" stroke="none" d="
M1818.287476,1821.643555 
	C1818.287476,1826.133789 1818.287476,1829.726929 1818.287476,1833.838867 
	C1807.607910,1833.838867 1797.475342,1833.838867 1786.778076,1833.838867 
	C1786.778076,1823.673462 1786.778076,1813.617065 1786.778076,1802.929199 
	C1797.191650,1802.929199 1807.301758,1802.929199 1818.287476,1802.929199 
	C1818.287476,1808.904785 1818.287476,1814.825562 1818.287476,1821.643555 
z" data-index="10"></path>
<path fill="#F9F9F9" opacity="1.000000" stroke="none" d="
M2155.503906,1821.609863 
	C2155.503906,1814.795898 2155.503906,1808.887451 2155.503906,1802.646240 
	C2166.302002,1802.646240 2176.154053,1802.646240 2187.210449,1802.646240 
	C2187.974609,1812.913574 2187.431152,1823.026245 2187.539551,1833.748047 
	C2176.980713,1833.748047 2166.865234,1833.748047 2155.503906,1833.748047 
	C2155.503906,1830.197876 2155.503906,1826.356689 2155.503906,1821.609863 
z" data-index="11"></path>
<path fill="#F9F9F9" opacity="1.000000" stroke="none" d="
M1429.724731,1830.355469 
	C1429.716675,1820.902100 1429.716675,1812.302979 1429.716675,1803.007568 
	C1440.258911,1803.007568 1450.285034,1803.007568 1461.054077,1803.007568 
	C1461.054077,1813.120605 1461.054077,1823.226318 1461.054077,1834.202148 
	C1451.357544,1834.202148 1441.484741,1834.258179 1431.616455,1834.073730 
	C1430.970947,1834.061768 1430.359863,1832.207275 1429.724731,1830.355469 
z" data-index="12"></path>
<path fill="#F9F9F9" opacity="1.000000" stroke="none" d="
M2331.963867,1834.363159 
	C2326.159912,1834.363159 2321.266602,1834.363159 2316.059814,1834.363159 
	C2316.059814,1823.369141 2316.059814,1813.223633 2316.059814,1802.690796 
	C2326.348389,1802.690796 2336.210449,1802.690796 2347.392578,1802.690796 
	C2348.247803,1812.802124 2347.508057,1822.915161 2347.880127,1834.363159 
	C2342.522949,1834.363159 2337.698730,1834.363159 2331.963867,1834.363159 
z" data-index="13"></path>
<path fill="#020202" opacity="1.000000" stroke="none" d="
M1628.000000,1701.934814 
	C1648.983276,1701.935425 1668.966797,1701.881104 1688.949707,1701.956055 
	C1701.850952,1702.004395 1706.101318,1706.362549 1706.219971,1719.407227 
	C1706.277588,1725.734619 1705.735840,1732.110718 1706.343384,1738.379761 
	C1707.213623,1747.360352 1700.010376,1754.810913 1690.384399,1754.423584 
	C1673.426147,1753.741455 1656.420532,1754.233032 1639.434814,1754.233032 
	C1610.459106,1754.233154 1581.483276,1754.233276 1552.507568,1754.233276 
	C1549.244751,1754.233276 1545.981812,1754.233276 1542.262085,1754.233276 
	C1542.262085,1736.664917 1542.262085,1719.854736 1542.262085,1701.934814 
	C1570.619385,1701.934814 1598.809692,1701.934814 1628.000000,1701.934814 
z" data-index="14"></path>
</svg>